<svg xmlns="http://www.w3.org/2000/svg" version="1.1" xmlns:xlink="http://www.w3.org/1999/xlink" width="200" height="200"><svg xmlns="http://www.w3.org/2000/svg" version="1.1" xmlns:xlink="http://www.w3.org/1999/xlink" viewBox="0 0 200 200"><rect width="200" height="200" fill="url('#gradient')"></rect><defs><linearGradient id="SvgjsLinearGradient1001" gradientTransform="rotate(73 0.5 0.5)"><stop offset="0%" stop-color="#2d34e1"></stop><stop offset="100%" stop-color="#b5349d"></stop></linearGradient></defs><g><g fill="#172526" transform="matrix(7.1820679681851045,0,0,7.1820679681851045,-4.714630840364265,136.12509120850137)" stroke="#1344ca" stroke-width="0.2"><path d="M1.07-14.22L5.58-14.22L8.75-4.33L11.91-14.22L16.43-14.22L16.43 0L12.99 0L12.99-3.32L13.32-10.12L9.88 0L7.62 0L4.17-10.13L4.50-3.32L4.50 0L1.07 0L1.07-14.22ZM18.07-5.24L18.07-5.36Q18.07-6.96 18.59-8.19Q19.12-9.42 20.11-10.09Q21.09-10.76 22.40-10.76L22.40-10.76Q24.05-10.76 24.98-9.65L24.98-9.65L25.10-10.57L28.09-10.57L28.09-0.40Q28.09 1.00 27.44 2.03Q26.79 3.06 25.56 3.61Q24.33 4.16 22.71 4.16L22.71 4.16Q21.54 4.16 20.45 3.72Q19.37 3.28 18.79 2.58L18.79 2.58L20.17 0.64Q21.08 1.73 22.59 1.73L22.59 1.73Q24.78 1.73 24.78-0.52L24.78-0.52L24.78-0.85Q23.83 0.20 22.38 0.20L22.38 0.20Q20.45 0.20 19.26-1.28Q18.07-2.76 18.07-5.24L18.07-5.24ZM21.37-5.16L21.37-5.16Q21.37-3.86 21.86-3.10Q22.34-2.34 23.22-2.34L23.22-2.34Q24.29-2.34 24.78-3.06L24.78-3.06L24.78-7.50Q24.30-8.22 23.24-8.22L23.24-8.22Q22.36-8.22 21.87-7.44Q21.37-6.65 21.37-5.16Z"></path></g></g></svg><style>@media (prefers-color-scheme: light) { :root { filter: none; } }
@media (prefers-color-scheme: dark) { :root { filter: none; } }
</style></svg>